<svg xmlns="http://www.w3.org/2000/svg" xmlns:xlink="http://www.w3.org/1999/xlink" width="16" height="16" viewBox="0 0 16 16" fill="none"><defs><rect id="path_0" x="0" y="0" width="16" height="16" /></defs><g opacity="1" transform="translate(0 0)  rotate(0 8 8)"><mask id="bg-mask-0" fill="white"><use xlink:href="#path_0"></use></mask><g mask="url(#bg-mask-0)" ><path id="分组 1" fill-rule="evenodd" style="fill:#000000" transform="translate(2.012546875 0.10375000000000068)  rotate(0 5.929843750034483 7.906453125)" opacity="1" d="M11.86 5.93C11.86 2.65 9.2 0 5.93 0C2.65 0 0 2.65 0 5.93C0 9.2 5.93 15.81 5.93 15.81C5.93 15.81 11.86 9.2 11.86 5.93Z M0.76025 6.01023C0.76025 8.90023 5.93025 14.7502 5.93025 14.7502C5.93025 14.7502 11.1003 8.90023 11.1003 6.01023C11.1003 3.11023 8.78025 0.760234 5.93025 0.760234C3.07025 0.760234 0.76025 3.11023 0.76025 6.01023Z M8.39906 5.43494C8.39906 4.07494 7.29906 2.96494 5.92906 2.96494C4.56906 2.96494 3.45906 4.07494 3.45906 5.43494C3.45906 6.80494 4.56906 7.90494 5.92906 7.90494C7.29906 7.90494 8.39906 6.80494 8.39906 5.43494Z M4.10528 5.46914C4.10528 6.47914 4.92528 7.29914 5.92528 7.29914C6.93528 7.29914 7.75528 6.47914 7.75528 5.46914C7.75528 4.46914 6.93528 3.64914 5.92528 3.64914C4.92528 3.64914 4.10528 4.46914 4.10528 5.46914Z " /></g></g></svg>