<svg xmlns="http://www.w3.org/2000/svg" xmlns:xlink="http://www.w3.org/1999/xlink" width="25.000009007088323" height="25" viewBox="0 0 25.000009007088323 25" fill="none"><path id="分组 1" fill-rule="evenodd" style="fill:#FFFFFF" transform="translate(-8.881784197001252e-15 0)  rotate(0 12.500004503544162 12.499999999999996)" opacity="1" d="M5.5132 20.135C7.4332 22.355 10.3332 23.685 13.4732 23.685C19.1332 23.685 23.6832 19.425 23.6832 14.205C23.6832 10.235 21.0232 6.71503 17.0832 5.33503C17.4132 6.38503 17.5832 7.47503 17.5832 8.58503C17.5832 14.925 12.1732 20.045 5.5132 20.135Z M4.12626 20.4962C6.21626 23.2262 9.62626 24.9962 13.4763 24.9962C19.8363 24.9962 24.9963 20.1662 24.9963 14.2062C24.9963 9.45623 21.7263 5.42623 17.1763 3.97623C16.4163 3.74623 15.7163 4.15623 15.7163 4.15623C15.4963 4.45623 15.4863 4.70623 15.7163 5.36623C16.0763 6.37623 16.2663 7.45623 16.2663 8.58623C16.2663 14.2362 11.3763 18.8162 5.33626 18.8162C5.24626 18.8162 5.14626 18.8162 5.03626 18.8162C4.43626 18.7862 3.93626 19.2362 3.90626 19.8162C3.89626 20.0662 3.97626 20.3062 4.12626 20.4962Z M9.18251 9.38612L8.67251 10.4761L8.05251 10.5661C7.99251 10.5761 7.94251 10.6061 7.89251 10.6461C7.78251 10.7561 7.78251 10.9361 7.89251 11.0461L8.35251 11.5161L8.24251 12.1761C8.23251 12.2361 8.24251 12.2961 8.27251 12.3561C8.34251 12.4861 8.51251 12.5361 8.65251 12.4661L9.18251 12.1661L9.71251 12.4661C9.76251 12.4961 9.83251 12.5061 9.89251 12.4961C10.0425 12.4661 10.1425 12.3261 10.1225 12.1761L10.0125 11.5161L10.4725 11.0461C10.5125 11.0061 10.5325 10.9461 10.5425 10.8861C10.5625 10.7361 10.4625 10.5961 10.3125 10.5761L9.69251 10.4761L9.18251 9.37611C9.18251 9.37611 9.18251 9.37611 9.18251 9.37611C9.18251 9.37611 9.18251 9.37611 9.18251 9.37611C9.18251 9.37611 9.18251 9.37611 9.18251 9.37611L9.18251 9.37611C9.18251 9.37611 9.18251 9.37611 9.18251 9.38612Z M0.25 1.61C0.19 1.62 0.13 1.64 0.09 1.69C0.03 1.74 0 1.81 0 1.89C0 1.97 0.03 2.04 0.08 2.1L1.01 3.04L0.79 4.35C0.78 4.41 0.8 4.48 0.83 4.54C0.91 4.68 1.09 4.73 1.23 4.65L2.34 4.05L3.46 4.65C3.52 4.68 3.59 4.69 3.65 4.68C3.81 4.66 3.92 4.51 3.9 4.35L3.68 3.04L4.6 2.1C4.65 2.05 4.68 2 4.68 1.94C4.71 1.78 4.6 1.63 4.44 1.61L3.16 1.42C2.91 0.47 2.65 0 2.38 0C2.11 0 1.83 0.47 1.53 1.42L0.25 1.61Z " /></svg>