<svg xmlns="http://www.w3.org/2000/svg" xmlns:xlink="http://www.w3.org/1999/xlink" width="16" height="16" viewBox="0 0 16 16" fill="none"><defs><rect id="path_0" x="0" y="0" width="16" height="16" /></defs><g opacity="1" transform="translate(0 0)  rotate(0 8 8)"><mask id="bg-mask-0" fill="white"><use xlink:href="#path_0"></use></mask><g mask="url(#bg-mask-0)" ><path id="路径 1" fill-rule="evenodd" style="fill:#000000" transform="translate(1.3321861370844381 1.3447914532584129)  rotate(0 6.6539220275593856 6.660937609308293)" opacity="1" d="M9.33,2.2C9.52,2.25 9.73,2.22 9.89,2.1C10.31,1.79 10.78,1.54 11.28,1.38C11.34,1.69 11.34,2 11.28,2.32C11.19,2.79 11.29,3.28 11.55,3.69C11.85,4.13 12,4.64 12,5.17C12,7.99 10.5,8.51 8.87,8.7C8.63,8.73 8.42,8.9 8.33,9.13C8.25,9.37 8.3,9.63 8.47,9.82C8.74,10.12 8.87,10.52 8.83,10.92L8.83,12.66C8.83,13.02 9.13,13.32 9.49,13.32C9.85,13.3 10.12,13.01 10.12,12.66L10.12,10.96C10.15,10.58 10.1,10.21 9.97,9.85C11.36,9.54 13.31,8.56 13.31,5.18C13.31,4.39 13.08,3.62 12.64,2.96C12.57,2.84 12.54,2.71 12.57,2.58C12.7,1.85 12.63,1.11 12.35,0.43C12.27,0.25 12.12,0.11 11.93,0.05C11.71,-0.02 10.89,-0.15 9.35,0.85C8.11,0.55 6.81,0.55 5.56,0.85C4.02,-0.15 3.21,-0.02 2.98,0.05C2.79,0.11 2.64,0.25 2.56,0.43C2.28,1.11 2.21,1.85 2.34,2.57C2.37,2.71 2.34,2.86 2.25,2.98C1.82,3.64 1.59,4.41 1.59,5.2C1.59,8.54 3.55,9.52 4.92,9.87C4.8,10.21 4.75,10.56 4.77,10.92C3.5,11.16 2.83,10.58 2.17,9.91C1.81,9.5 1.35,9.19 0.83,9C0.6,8.94 0.36,9.01 0.19,9.18C0.02,9.35 -0.04,9.6 0.02,9.83C0.09,10.06 0.27,10.24 0.5,10.3C0.79,10.44 1.06,10.64 1.27,10.88C2.14,11.91 3.46,12.43 4.79,12.28L4.79,12.66C4.79,13.02 5.09,13.32 5.45,13.32C5.82,13.32 6.12,13.02 6.12,12.66L6.12,10.86C6.09,10.48 6.23,10.1 6.49,9.82C6.65,9.64 6.71,9.39 6.63,9.16C6.54,8.92 6.33,8.75 6.08,8.72C4.2,8.48 2.95,7.78 2.95,5.19C2.95,4.66 3.1,4.14 3.39,3.7C3.67,3.29 3.77,2.8 3.68,2.32C3.62,2.01 3.62,1.69 3.68,1.38C4.19,1.54 4.66,1.79 5.09,2.1C5.25,2.22 5.46,2.25 5.65,2.2C6.85,1.86 8.12,1.86 9.33,2.2Z " /></g></g></svg>