<svg xmlns="http://www.w3.org/2000/svg" xmlns:xlink="http://www.w3.org/1999/xlink" width="40" height="40" viewBox="0 0 40 40" fill="none"><path id="分组 1" fill-rule="evenodd" style="fill:#FFCA28" transform="translate(0 0)  rotate(0 20 20)" opacity="1" d="M0 40L40 40L40 0L0 0L0 40Z M16.1511 36.8656C19.4911 36.8656 21.7811 35.0856 21.7811 31.1956L21.7811 18.3556L18.0011 18.3556L18.0011 31.1156C18.0011 33.0256 17.2211 33.5156 16.0011 33.5156C14.7111 33.5156 14.1811 32.6256 13.5811 31.5756L10.5111 33.4256C11.4011 35.3156 13.1511 36.8656 16.1511 36.8656Z M30.96 25.3156C29.33 24.6256 28.64 24.1556 28.64 23.0456C28.64 22.1356 29.33 21.4256 30.44 21.4256C31.51 21.4256 32.22 21.8856 32.87 23.0456L35.78 21.1156C34.56 18.9756 32.82 18.1556 30.44 18.1556C27.09 18.1556 24.93 20.2856 24.93 23.1156C24.93 26.1756 26.73 27.6256 29.44 28.7756L30.38 29.1756C32.11 29.9356 33.13 30.3956 33.13 31.6856C33.13 32.7556 32.13 33.5356 30.58 33.5356C28.73 33.5356 27.67 32.5756 26.87 31.2456L23.8 33.0256C24.91 35.1956 27.16 36.8656 30.67 36.8656C34.22 36.8656 36.89 35.0256 36.89 31.6256C36.89 28.4856 35.09 27.0856 31.89 25.7156L30.96 25.3156Z " /></svg>