<svg xmlns="http://www.w3.org/2000/svg" xmlns:xlink="http://www.w3.org/1999/xlink" width="25" height="25" viewBox="0 0 25 25" fill="none"><defs><rect id="path_0" x="0" y="0" width="25" height="25" /></defs><g opacity="1" transform="translate(0 0)  rotate(0 12.5 12.5)"><mask id="bg-mask-0" fill="white"><use xlink:href="#path_0"></use></mask><g mask="url(#bg-mask-0)" ><path id="分组 1" fill-rule="evenodd" style="fill:#C4C4C4" transform="translate(1.171875 1.171875)  rotate(0 11.279296875 11.279296875)" opacity="1" d="M12.058 2.73L12.058 0.78C12.058 0.35 11.708 0 11.278 0C10.848 0 10.498 0.35 10.498 0.78L10.498 2.73C10.498 3.17 10.848 3.52 11.278 3.52C11.708 3.52 12.058 3.17 12.058 2.73Z M17.3204 6.01499C17.5304 6.01499 17.7304 5.93499 17.8704 5.78499L19.2504 4.40499C19.4604 4.21499 19.5404 3.92499 19.4704 3.64499C19.4004 3.37499 19.1804 3.16499 18.9104 3.09499C18.6404 3.01499 18.3504 3.10499 18.1504 3.30499L16.7704 4.68499C16.4604 4.98499 16.4604 5.48499 16.7704 5.78499C16.9204 5.93499 17.1104 6.01499 17.3204 6.01499Z M19.823 12.058L21.773 12.058C22.213 12.058 22.563 11.708 22.563 11.278C22.563 10.848 22.213 10.498 21.773 10.498L19.823 10.498C19.393 10.498 19.043 10.848 19.043 11.278C19.043 11.708 19.393 12.058 19.823 12.058Z M16.7702 17.8704L18.1502 19.2504C18.3502 19.4604 18.6402 19.5404 18.9102 19.4704C19.1802 19.4004 19.4002 19.1804 19.4702 18.9104C19.5402 18.6404 19.4602 18.3504 19.2502 18.1504L17.8702 16.7704C17.5702 16.4604 17.0702 16.4604 16.7702 16.7704C16.4602 17.0704 16.4602 17.5704 16.7702 17.8704Z M10.498 19.823L10.498 21.773C10.498 22.213 10.848 22.563 11.278 22.563C11.708 22.563 12.058 22.213 12.058 21.773L12.058 19.823C12.058 19.393 11.708 19.043 11.278 19.043C10.848 19.043 10.498 19.393 10.498 19.823Z M4.6846 16.7706L3.3046 18.1506C3.0046 18.4606 3.0146 18.9406 3.3146 19.2406C3.6146 19.5506 4.1046 19.5506 4.4046 19.2506L5.7846 17.8706C6.0946 17.5706 6.0946 17.0706 5.7846 16.7706C5.4846 16.4606 4.9946 16.4606 4.6846 16.7706Z M2.73 10.498L0.78 10.498C0.35 10.498 0 10.848 0 11.278C0 11.708 0.35 12.058 0.78 12.058L2.73 12.058C3.17 12.058 3.52 11.708 3.52 11.278C3.52 10.848 3.17 10.498 2.73 10.498Z M5.78421 4.6846L4.40421 3.3046C4.10421 3.0046 3.61421 3.0146 3.31421 3.3146C3.01421 3.6146 3.00421 4.1046 3.30421 4.4046L4.68421 5.7846C4.99421 6.0946 5.48421 6.0946 5.79421 5.7846C6.09421 5.4846 6.09421 4.9946 5.78421 4.6846Z M5.41992 11.3288C5.41992 14.5688 8.03992 17.1888 11.2799 17.1888C14.5199 17.1888 17.1399 14.5688 17.1399 11.3288C17.1399 8.08875 14.5199 5.46875 11.2799 5.46875C8.03992 5.46875 5.41992 8.08875 5.41992 11.3288Z M6.98242 11.3313C6.98242 13.7013 8.90242 15.6213 11.2824 15.6213C13.6524 15.6213 15.5724 13.7013 15.5724 11.3313C15.5724 8.95125 13.6524 7.03125 11.2824 7.03125C8.90242 7.03125 6.98242 8.95125 6.98242 11.3313Z " /></g></g></svg>