<svg xmlns="http://www.w3.org/2000/svg" xmlns:xlink="http://www.w3.org/1999/xlink" width="16" height="16" viewBox="0 0 16 16" fill="none"><defs><rect id="path_0" x="0" y="0" width="16" height="15.686274509803921" /></defs><g opacity="1" transform="translate(0 0)  rotate(0 8 7.8431372549019605)"><mask id="bg-mask-0" fill="white"><use xlink:href="#path_0"></use></mask><g mask="url(#bg-mask-0)" ><path id="分组 1" fill-rule="evenodd" style="fill:#000000" transform="translate(0.1966176470588231 0)  rotate(0 7.846743295019157 7.8431372549019605)" opacity="1" d="M7.219 13.1765L7.219 15.6865L8.479 15.6865L8.479 13.1765L7.219 13.1765Z M1.85434 12.9408L2.74434 13.8308L4.51434 12.0608L3.63434 11.1708L1.85434 12.9408Z M11.176 12.0608L12.956 13.8308L13.836 12.9408L12.066 11.1708L11.176 12.0608Z M3.76644 7.84471C3.76644 10.0947 5.59644 11.9247 7.84644 11.9247C10.0964 11.9247 11.9264 10.0947 11.9264 7.84471C11.9264 5.59471 10.0964 3.76471 7.84644 3.76471C5.59644 3.76471 3.76644 5.59471 3.76644 7.84471Z M5.40192 6.42961C4.89192 7.30961 4.89192 8.37961 5.40192 9.25961C5.90192 10.1296 6.84192 10.6696 7.84192 10.6696C9.40192 10.6696 10.6719 9.39961 10.6719 7.83961C10.6719 6.28961 9.40192 5.01961 7.84192 5.01961C6.84192 5.01961 5.90192 5.55961 5.40192 6.42961Z M13.1825 7.21569L13.1825 8.46569L15.6925 8.46569L15.6925 7.21569L13.1825 7.21569Z M0 7.21569L0 8.46569L2.51 8.46569L2.51 7.21569L0 7.21569Z M11.2237 3.57612L12.1137 4.46612L13.8837 2.69612L13.0037 1.80612L11.2237 3.57612Z M2.69758 1.80612L1.80758 2.69612L3.58758 4.46612L4.46758 3.57612L2.69758 1.80612L2.69758 1.80612Z M7.219 0L7.219 2.51L8.479 2.51L8.479 0L7.219 0Z " /></g></g></svg>