<svg xmlns="http://www.w3.org/2000/svg" xmlns:xlink="http://www.w3.org/1999/xlink" width="40" height="30" viewBox="0 0 40 30" fill="none"><defs><rect id="path_0" x="0" y="0" width="40" height="30" /></defs><g opacity="1" transform="translate(0 0)  rotate(0 20 15)"><mask id="bg-mask-0" fill="white"><use xlink:href="#path_0"></use></mask><g mask="url(#bg-mask-0)" ><path id="分组 1" fill-rule="evenodd" style="fill:#43CF7C" transform="translate(0 3.5164759593195303)  rotate(0 19.999999999999993 11.483949520340264)" opacity="1" d="M18.6238 20.5733L18.6238 16.7133C18.6238 16.6533 18.5737 16.6133 18.5238 16.6133L18.0638 16.6133C18.0037 16.6133 17.9538 16.6633 17.9538 16.7133L17.9538 20.5733C17.9538 20.8733 17.6238 21.1733 17.0837 20.9133L16.1038 20.3833C16.0737 20.3633 16.0438 20.3333 16.0438 20.2933L16.0438 16.3833C16.0438 16.3533 16.0637 16.3133 16.1038 16.2933L19.7138 14.3433C19.7537 14.3233 19.7938 14.3233 19.8237 14.3433L23.4338 16.2933C23.4738 16.3133 23.4938 16.3433 23.4938 16.3833L23.4938 20.2933C23.4938 20.3333 23.4738 20.3733 23.4338 20.3933L19.8237 22.3433C19.7938 22.3633 19.7437 22.3633 19.7138 22.3433L18.7838 21.8333C18.7638 21.8233 18.7238 21.8133 18.7038 21.8233C18.4438 21.9633 18.3937 21.9833 18.1537 22.0633C18.0938 22.0733 18.0037 22.1133 18.1838 22.2033L19.3838 22.8733C19.5037 22.9333 19.6338 22.9633 19.7738 22.9633C19.9038 22.9633 20.0338 22.9333 20.1437 22.8733L23.7537 20.9133C23.9938 20.7833 24.1338 20.5433 24.1338 20.2933L24.1338 16.3833C24.1338 16.1333 23.9837 15.9033 23.7537 15.7733L20.1437 13.8133C19.9237 13.6933 19.6138 13.6933 19.3838 13.8133L15.7738 15.7733C15.5338 15.8933 15.3938 16.1333 15.3938 16.3833L15.3938 20.2933C15.3938 20.5433 15.5437 20.7833 15.7738 20.9133L16.7238 21.4233C17.1838 21.6333 17.3538 21.6333 17.5538 21.6333C18.2337 21.6333 18.6238 21.2533 18.6238 20.5733Z M21.8725 17.7326C21.8825 17.7826 21.9225 17.8126 21.9725 17.8126L22.4425 17.8126C22.4725 17.8126 22.4925 17.8026 22.5125 17.7826C22.5325 17.7626 22.5425 17.7326 22.5425 17.7026C22.4625 16.8926 21.8925 16.5226 20.7325 16.5226C19.7025 16.5226 19.0925 16.9326 19.0925 17.6126C19.0925 18.3526 19.7025 18.5526 20.6925 18.6526C21.8725 18.7626 21.9725 18.9226 21.9725 19.1326C21.9725 19.5126 21.6425 19.6726 20.8825 19.6726C19.9225 19.6726 19.7125 19.4526 19.6425 19.0026C19.6325 18.9626 19.5925 18.9226 19.5325 18.9226L19.0725 18.9226C19.0125 18.9226 18.9625 18.9626 18.9625 19.0226C18.9625 19.5926 19.2925 20.2726 20.8725 20.2726C22.0325 20.2726 22.6925 19.8526 22.6825 19.1126C22.6825 18.3826 22.1625 18.1826 21.0525 18.0426C19.9225 17.9026 19.8125 17.8326 19.8125 17.5926C19.8125 17.3826 19.9025 17.1126 20.7325 17.1126C21.4825 17.1126 21.7525 17.2626 21.8725 17.7326Z M25.3962 15.5264C25.0262 15.5264 24.7062 15.8064 24.7062 16.1764C24.7062 16.5364 25.0162 16.8264 25.3962 16.8264C25.7862 16.8264 26.0962 16.5364 26.0962 16.1764C26.0962 15.8064 25.7762 15.5164 25.3962 15.5264Z M25.3925 15.632C25.0725 15.632 24.8125 15.872 24.8125 16.172C24.8125 16.482 25.0725 16.732 25.3925 16.732C25.7225 16.722 25.9825 16.472 25.9825 16.172C25.9825 15.872 25.7225 15.632 25.3925 15.632Z M25.6975 16.5377C25.6775 16.5077 25.6675 16.4077 25.6675 16.3477C25.6475 16.2577 25.6375 16.1877 25.5275 16.1877C25.5875 16.1677 25.6775 16.1377 25.6775 15.9977C25.6775 15.8077 25.4975 15.8077 25.4075 15.8077L25.1375 15.8077L25.1375 16.5377L25.2875 16.5377L25.2875 16.2477L25.4275 16.2477C25.4775 16.2477 25.4975 16.2677 25.5075 16.3077C25.5075 16.3177 25.5275 16.5077 25.5375 16.5377L25.6975 16.5377Z M25.4175 15.9249L25.2875 15.9249L25.2875 16.1349L25.4075 16.1349C25.5075 16.1349 25.5275 16.0649 25.5275 16.0249C25.5275 15.9249 25.4475 15.9249 25.4175 15.9249Z M0.01 13.243C0.01 13.313 0.05 13.383 0.12 13.433C0.19 13.473 0.28 13.473 0.35 13.433L2.63 12.203C2.77 12.123 2.86 11.983 2.86 11.833L2.86 9.22298C2.86 9.07298 2.94 8.93298 3.09 8.85298L4.06 8.33298C4.13 8.29298 4.21 8.27298 4.29 8.27298C4.37 8.27298 4.45 8.29298 4.52 8.33298L5.49 8.85298C5.63 8.93298 5.72 9.07298 5.72 9.22298L5.72 11.833C5.72 11.983 5.81 12.133 5.95 12.203L8.23 13.433C8.29 13.473 8.39 13.473 8.46 13.433C8.53 13.393 8.57 13.313 8.57 13.243L8.58 7.67298C8.58 7.51298 8.49 7.37298 8.35 7.30298L4.52 5.23298C4.46 5.19298 4.38 5.18298 4.31 5.17298L4.27 5.17298C4.19 5.17298 4.13 5.19298 4.06 5.23298L0.23 7.30298C0.09 7.37298 0 7.52298 0 7.67298L0.01 13.243Z M26.6637 5.72C26.6637 5.84 26.5338 5.91 26.4237 5.85L25.4638 5.34C25.3237 5.26 25.1538 5.26 25.0037 5.34L21.1737 7.41C21.0338 7.49 20.9438 7.63 20.9438 7.79L20.9438 11.93C20.9438 12.09 21.0338 12.23 21.1737 12.31L25.0037 14.38C25.1538 14.46 25.3237 14.46 25.4638 14.38L29.3037 12.31C29.4438 12.23 29.5338 12.09 29.5338 11.93L29.5338 1.6C29.5338 1.44 29.4338 1.29 29.2938 1.22L27.0138 0.03C26.8538 -0.05 26.6637 0.05 26.6637 0.22L26.6637 5.72Z M26.6 9.05972L25.29 8.33972C25.25 8.32972 25.21 8.32972 25.17 8.33972L23.86 9.05972C23.82 9.07972 23.8 9.10972 23.8 9.14972L23.8 10.5797C23.8 10.6197 23.82 10.6497 23.86 10.6697L25.17 11.3797C25.21 11.3997 25.25 11.3997 25.28 11.3797L26.59 10.6697C26.63 10.6497 26.65 10.6197 26.65 10.5797L26.65 9.14972L26.66 9.14972C26.66 9.10972 26.63 9.07972 26.6 9.05972Z M35.9275 14.2872L38.2275 13.0872C38.3875 13.0072 38.3875 12.7972 38.2275 12.7172L34.3775 10.6372C34.2975 10.5972 34.2575 10.5272 34.2575 10.4572L34.2575 9.14718C34.2575 9.07718 34.2975 9.00718 34.3775 8.96718L35.5775 8.31718C35.6475 8.27718 35.7375 8.27718 35.8075 8.31718L37.0075 8.96718C37.0775 9.00718 37.1275 9.07718 37.1275 9.14718L37.1275 10.1672C37.1275 10.3372 37.3175 10.4372 37.4775 10.3572L39.7675 9.10718C39.9075 9.03718 39.9975 8.88718 39.9975 8.73718L39.9975 7.73718C39.9975 7.57718 39.9175 7.43718 39.7675 7.35718L35.9675 5.28718C35.8175 5.20718 35.6475 5.20718 35.4975 5.28718L31.6675 7.35718C31.5275 7.43718 31.4375 7.57718 31.4375 7.73718L31.4375 11.8772C31.4375 12.0372 31.5275 12.1772 31.6675 12.2572L35.4775 14.2872C35.6175 14.3672 35.7875 14.3672 35.9275 14.2872Z M34.8937 10.1839C34.8937 10.2139 34.9137 10.2439 34.9338 10.2539L35.6737 10.6539C35.7038 10.6739 35.7337 10.6739 35.7637 10.6539L36.5037 10.2539C36.5238 10.2339 36.5438 10.2139 36.5438 10.1839L36.5438 9.38393C36.5438 9.35393 36.5238 9.32393 36.5037 9.31393L35.7637 8.91393C35.7337 8.90393 35.7038 8.90393 35.6737 8.91393L34.9338 9.31393C34.9137 9.33393 34.8937 9.35393 34.8937 9.38393L34.8937 10.1839Z M19.0525 11.8647L19.0525 7.73467C19.0525 7.58467 18.9525 7.44467 18.8025 7.36467L14.9925 5.30467C14.8525 5.23467 14.6725 5.22467 14.5225 5.30467L10.7025 7.36467C10.5625 7.44467 10.4625 7.58467 10.4625 7.73467L10.4625 11.8647C10.4625 12.0247 10.5825 12.1647 10.7125 12.2347L14.5325 14.3047C14.6825 14.3847 14.8625 14.3747 15.0025 14.3047L18.8125 12.2347C18.9225 12.1847 19.0025 12.0847 19.0325 11.9647C19.0425 11.9347 19.0525 11.8947 19.0525 11.8647Z M14.3562 4.57602L14.4262 4.57602L14.4062 4.54602L14.3562 4.57602Z M19.1437 12.1339L19.1437 12.1839L19.1637 12.1739L19.1437 12.1339Z " /></g></g></svg>