<svg xmlns="http://www.w3.org/2000/svg" xmlns:xlink="http://www.w3.org/1999/xlink" width="50" height="50" viewBox="0 0 50 50" fill="none"><defs><rect id="path_0" x="0" y="0" width="50" height="50" /></defs><g opacity="1" transform="translate(0 0)  rotate(0 25 25)"><mask id="bg-mask-0" fill="white"><use xlink:href="#path_0"></use></mask><g mask="url(#bg-mask-0)" ><path id="路径 1" fill-rule="evenodd" style="fill:#61DAFB" transform="translate(21.09375 21.083984374999975)  rotate(0 3.90625 3.9062499999999987)" opacity="1" d="M3.91,7.81C6.06,7.81 7.81,6.06 7.81,3.91C7.81,1.75 6.06,0 3.91,0C1.75,0 0,1.75 0,3.91C0,6.06 1.75,7.81 3.91,7.81Z " /><path id="分组 1" fill-rule="evenodd" style="fill:#61DAFB" transform="translate(3.1005859375 5.481295213932659)  rotate(0 21.8994140625 19.520094580533673)" opacity="1" d="M30.64 39.04C31.46 39.04 32.2 38.85 32.85 38.47C35.51 36.94 36.01 32.49 34.59 26.84C40.2 25.23 43.8 22.58 43.8 19.51C43.8 16.44 40.2 13.79 34.59 12.18C36.01 6.53 35.51 2.08 32.85 0.54C30.19 -0.99 26.09 0.8 21.9 4.85C17.71 0.8 13.61 -0.99 10.95 0.54C8.29 2.08 7.79 6.53 9.2 12.18C3.6 13.79 0 16.44 0 19.51C0 22.58 3.6 25.23 9.2 26.84C7.79 32.49 8.29 36.94 10.95 38.47C11.6 38.85 12.34 39.04 13.15 39.04C15.09 39.04 17.44 37.98 19.99 35.91C20.63 35.39 21.26 34.8 21.9 34.19C22.53 34.8 23.17 35.39 23.81 35.91C26.36 37.98 28.7 39.04 30.64 39.04Z M30.6524 1.89159C28.8124 1.89159 26.1224 3.41159 23.2324 6.21159C24.4824 7.55159 25.7324 9.09159 26.9324 10.8016C29.0124 10.9916 30.9624 11.2916 32.7624 11.7016C33.9824 6.80159 33.6224 3.19159 31.9024 2.19159C31.5424 1.99159 31.1224 1.89159 30.6524 1.89159Z M29.8704 19.5082C29.3104 18.3482 28.7004 17.1782 28.0104 15.9782C27.3204 14.7882 26.6104 13.6682 25.8904 12.6082C24.6104 12.5082 23.2904 12.4582 21.9004 12.4582C20.5204 12.4582 19.1904 12.5082 17.9204 12.6082C17.2004 13.6682 16.4904 14.7882 15.8004 15.9882C15.1104 17.1782 14.5004 18.3582 13.9404 19.5082C14.5004 20.6582 15.1104 21.8382 15.8004 23.0382C16.4704 24.1982 17.1804 25.3282 17.9104 26.4082C19.1904 26.4982 20.5204 26.5582 21.9004 26.5582C23.2904 26.5582 24.6104 26.4982 25.8904 26.4082C26.6204 25.3282 27.3304 24.2082 28.0004 23.0382C28.6904 21.8382 29.3104 20.6582 29.8704 19.5082Z M29.6503 23.9853C29.2203 24.7353 28.7703 25.4553 28.3203 26.1653C29.7203 25.9853 31.0303 25.7553 32.2403 25.4853C31.8703 24.2853 31.4203 23.0453 30.8703 21.7453C30.4903 22.4853 30.0803 23.2353 29.6503 23.9853Z M24.4506 28.4005C23.6106 28.4405 22.7606 28.4605 21.9006 28.4605C21.0306 28.4605 20.1806 28.4405 19.3506 28.4005C20.1806 29.5005 21.0306 30.5205 21.9006 31.4605C22.7606 30.5205 23.6106 29.5005 24.4506 28.4005Z M14.1476 23.9853C13.7076 23.2353 13.3076 22.4853 12.9276 21.7453C12.3776 23.0453 11.9276 24.2853 11.5576 25.4853C12.7776 25.7553 14.0776 25.9853 15.4776 26.1653C15.0276 25.4553 14.5776 24.7253 14.1476 23.9853Z M14.1476 15.0337C14.5776 14.2837 15.0276 13.5537 15.4776 12.8537C14.0776 13.0337 12.7776 13.2637 11.5576 13.5337C11.9276 14.7237 12.3776 15.9737 12.9276 17.2737C13.3076 16.5337 13.7176 15.7837 14.1476 15.0337Z M19.3555 10.6207C20.1855 10.5807 21.0355 10.5607 21.8955 10.5607C22.7655 10.5607 23.6055 10.5807 24.4455 10.6207C23.5955 9.5007 22.7455 8.4707 21.8955 7.5607C21.0555 8.4707 20.1955 9.5007 19.3555 10.6207Z M30.8703 17.2737C31.4203 15.9737 31.8603 14.7237 32.2403 13.5337C31.0203 13.2637 29.7203 13.0337 28.3203 12.8537C28.7703 13.5637 29.2103 14.2837 29.6503 15.0337C30.0803 15.7837 30.4903 16.5337 30.8703 17.2737Z M11.038 11.7018C12.828 11.2918 14.788 10.9918 16.868 10.8018C18.068 9.10175 19.318 7.55175 20.568 6.21175C17.678 3.41175 14.998 1.89175 13.148 1.89175C12.668 1.89175 12.248 1.99175 11.898 2.19175C10.178 3.18175 9.81804 6.79175 11.038 11.7018Z M9.7143 25.0109C10.2543 23.2509 10.9743 21.4009 11.8443 19.5109C10.9643 17.6109 10.2543 15.7709 9.7143 14.0109C4.8443 15.4009 1.9043 17.5209 1.9043 19.5109C1.9043 21.5009 4.8443 23.6209 9.7143 25.0109Z M20.5666 32.8266C19.3066 31.4566 18.0566 29.9066 16.8666 28.2266C14.7866 28.0366 12.8366 27.7266 11.0366 27.3166C9.81665 32.2266 10.1766 35.8366 11.8966 36.8266C13.3666 37.6666 15.8766 36.7966 18.7866 34.4266C19.3866 33.9466 19.9766 33.3966 20.5666 32.8266Z M32.7575 27.3117C30.9575 27.7317 29.0075 28.0317 26.9275 28.2217C25.7375 29.9117 24.4975 31.4517 23.2275 32.8217C23.8275 33.3917 24.4175 33.9417 25.0075 34.4217C27.9275 36.8017 30.4375 37.6717 31.8975 36.8317C33.6175 35.8317 33.9875 32.2217 32.7575 27.3117Z M41.9029 19.5109C41.9029 17.5209 38.9529 15.4009 34.0829 14.0109C33.5429 15.7709 32.8329 17.6109 31.9629 19.5109C32.8329 21.4009 33.5429 23.2509 34.0829 25.0109C38.9529 23.6209 41.8929 21.5009 41.9029 19.5109Z " /></g></g></svg>