<svg xmlns="http://www.w3.org/2000/svg" xmlns:xlink="http://www.w3.org/1999/xlink" width="32.64" height="32.639999999999986" viewBox="0 0 32.64 32.639999999999986" fill="none"><path id="分组 1" fill-rule="evenodd" style="fill:#0288D1" transform="translate(0 0)  rotate(0 16.32 16.32)" opacity="1" d="M0 32.64L32.64 32.64L32.64 0L0 0L0 32.64Z M25.671 21.3136C24.301 20.7036 23.941 20.4736 23.741 20.0436C23.571 19.6836 23.601 19.1736 23.821 18.8636C24.071 18.5036 24.581 18.3136 25.161 18.3936C25.691 18.4636 26.041 18.6736 26.371 19.1436C26.551 19.3836 26.671 19.5036 26.731 19.5036C26.791 19.5036 27.031 19.3536 27.811 18.8436C28.591 18.3236 28.841 18.1436 28.851 18.0936C28.881 18.0036 28.761 17.8136 28.401 17.3736C27.671 16.4836 26.831 16.0136 25.741 15.9036C25.471 15.8736 25.111 15.8536 24.801 15.8536L24.801 15.8536L24.801 15.8536C24.611 15.8536 24.441 15.8536 24.311 15.8736C23.301 15.9536 22.361 16.3936 21.721 17.0836C21.401 17.4236 21.101 17.9136 20.961 18.3536C20.801 18.8436 20.801 18.8336 20.811 19.5936C20.811 20.5636 20.861 20.8036 21.191 21.4536C21.521 22.1036 22.021 22.6336 22.751 23.0936C23.071 23.2936 23.891 23.7036 24.561 23.9936C26.021 24.6236 26.481 24.9236 26.701 25.3436L26.781 25.5236L26.781 25.8836C26.781 26.2436 26.781 26.2536 26.711 26.4036C26.551 26.7436 26.161 27.0236 25.661 27.1536C25.471 27.2036 25.391 27.2136 24.971 27.2136C24.561 27.2136 24.461 27.2036 24.271 27.1536C23.941 27.0736 23.661 26.9536 23.451 26.8136C23.181 26.6336 22.661 26.1136 22.451 25.8036C22.351 25.6736 22.261 25.5636 22.241 25.5636C22.201 25.5636 20.411 26.5836 20.091 26.7836C19.991 26.8536 19.961 26.8836 19.961 26.9336C19.961 27.0536 20.381 27.6836 20.711 28.0736C21.381 28.8536 22.721 29.5536 23.911 29.7236C24.381 29.7936 25.171 29.8136 25.711 29.7736C26.071 29.7436 26.431 29.6736 26.821 29.5636C28.231 29.1536 29.191 28.2736 29.541 27.0736C29.691 26.5936 29.751 25.9936 29.701 25.4836C29.601 24.4436 29.281 23.7136 28.651 23.0736C28.061 22.4836 27.261 22.0036 25.671 21.3136Z M15.3716 24.0436L15.3716 18.5436L17.3016 18.5436L19.2416 18.5336L19.2416 17.2936C19.2416 16.2136 19.2416 16.0436 19.2016 16.0236C19.1816 16.0136 18.0716 16.0036 16.1316 16.0036L16.1316 16.0036C15.4816 16.0036 14.7516 16.0036 13.9216 16.0036C9.6716 16.0136 8.6816 16.0136 8.6516 16.0436C8.6316 16.0736 8.6216 16.3336 8.6216 17.3036L8.6216 18.5336L10.5616 18.5436L12.4916 18.5436L12.4916 24.0236C12.4916 27.0436 12.5016 29.5336 12.5116 29.5636L12.5216 29.6236L13.9316 29.6236C15.1916 29.6236 15.3416 29.6136 15.3516 29.5836C15.3616 29.5636 15.3716 27.0636 15.3716 24.0436Z " /></svg>