<svg xmlns="http://www.w3.org/2000/svg" xmlns:xlink="http://www.w3.org/1999/xlink" width="16" height="16" viewBox="0 0 16 16" fill="none"><defs><rect id="path_0" x="0" y="0" width="16" height="16" /></defs><g opacity="1" transform="translate(0 0)  rotate(0 8 8)"><mask id="bg-mask-0" fill="white"><use xlink:href="#path_0"></use></mask><g mask="url(#bg-mask-0)" ><g opacity="1" transform="translate(1 1)  rotate(0 6.999998180054735 6.999997533006629)"><path id="路径 1" fill-rule="evenodd" style="fill:#FFFFFF" transform="translate(5.342723828996409 0)  rotate(0 4.328636265556531 4.353240639533656)" opacity="1" d="M3.74,1.97C4.24,1.5 4.88,1.38 5.54,1.55C7.14,1.98 7.65,3.86 6.5,5.04C5.73,5.82 4.94,6.59 4.17,7.37C3.81,7.73 3.77,8.17 4.08,8.48C4.37,8.79 4.92,8.78 5.26,8.44C6.05,7.67 6.86,6.9 7.61,6.09C8.68,4.94 8.95,3.59 8.33,2.14C7.73,0.72 6.56,0.08 5.26,0C4.26,0 3.51,0.18 2.93,0.7C1.98,1.56 1.07,2.46 0.19,3.38C-0.22,3.81 0.08,4.53 0.67,4.57C0.9,4.59 1.18,4.45 1.35,4.29C2.16,3.53 2.92,2.72 3.74,1.97Z " /><path id="路径 2" fill-rule="evenodd" style="fill:#FFFFFF" transform="translate(0 5.216537586282911)  rotate(0 4.295779502048588 4.391728739865173)" opacity="1" d="M5.05,6.6C4.21,7.42 2.89,7.41 2.08,6.61C1.25,5.77 1.29,4.51 2.19,3.58C2.93,2.83 3.68,2.09 4.43,1.35C4.81,0.96 4.84,0.55 4.52,0.22C4.2,-0.1 3.75,-0.07 3.38,0.3C2.6,1.07 1.82,1.84 1.05,2.62C0.35,3.33 0.01,4.19 0,5.19C0,6.6 0.8,7.88 2.1,8.44C3.45,9.03 4.74,8.87 5.84,7.9C6.74,7.11 7.56,6.23 8.39,5.36C8.54,5.21 8.62,4.88 8.58,4.67C8.46,4.07 7.77,3.91 7.31,4.35C6.55,5.1 5.81,5.86 5.05,6.6Z " /><path id="路径 3" fill-rule="evenodd" style="fill:#FFFFFF" transform="translate(3.9631567437745474 3.878746645094698)  rotate(0 3.0539138156127255 3.0466093500629836)" opacity="1" d="M6.11,0.85C6.09,0.43 5.94,0.2 5.64,0.07C5.31,-0.08 5.02,0.02 4.78,0.27C3.27,1.77 1.77,3.27 0.27,4.77C-0.08,5.12 -0.09,5.54 0.22,5.85C0.53,6.16 0.99,6.18 1.31,5.86C2.84,4.34 4.36,2.81 5.88,1.27C6,1.14 6.06,0.94 6.11,0.85Z " /></g></g></g></svg>