<svg xmlns="http://www.w3.org/2000/svg" xmlns:xlink="http://www.w3.org/1999/xlink" width="13" height="13.40625" viewBox="0 0 13 13.40625" fill="none"><defs><rect id="path_0" x="0" y="0" width="13" height="13.40625" /></defs><g opacity="1" transform="translate(0 0)  rotate(0 6.5 6.703125)"><mask id="bg-mask-0" fill="white"><use xlink:href="#path_0"></use></mask><g mask="url(#bg-mask-0)" ><path id="分组 1" fill-rule="evenodd" style="fill:#000000" transform="translate(1.2993271484375004 1.3399311218261656)  rotate(0 5.200168212890626 5.362239833913239)" opacity="1" d="M3.12 4.6605C3.17 4.6105 3.17 4.5405 3.12 4.5005L2.59 3.9405C2.54 3.9005 2.47 3.9005 2.43 3.9405L0.86 5.5705C-0.29 6.7505 -0.29 8.6605 0.86 9.8405C2 11.0205 3.86 11.0205 5 9.8405L6.58 8.2205C6.62 8.1705 6.62 8.1005 6.58 8.0605L6.04 7.5005C6 7.4605 5.93 7.4605 5.89 7.5005L4.31 9.1305C3.59 9.8805 2.36 9.9605 1.55 9.1305C0.75 8.3005 0.82 7.0305 1.55 6.2805L3.12 4.6605Z M9.542 0.89C8.392 -0.3 6.542 -0.3 5.402 0.89L3.822 2.51C3.782 2.55 3.782 2.62 3.822 2.67L4.362 3.22C4.402 3.26 4.472 3.26 4.512 3.22L6.092 1.6C6.812 0.85 8.042 0.77 8.852 1.6C9.652 2.43 9.582 3.7 8.852 4.45L7.272 6.07C7.232 6.11 7.232 6.18 7.272 6.23L7.812 6.78C7.862 6.83 7.922 6.83 7.972 6.78L9.542 5.16C10.682 3.98 10.682 2.07 9.542 0.89Z M6.37742 3.40984L3.30742 6.56984C3.26742 6.61984 3.26742 6.68984 3.30742 6.72984L3.84742 7.27984C3.88742 7.32984 3.95742 7.32984 3.99742 7.27984L7.06742 4.11984C7.10742 4.07984 7.10742 4.00984 7.06742 3.96984L6.52742 3.40984C6.48742 3.36984 6.41742 3.36984 6.37742 3.40984Z " /></g></g></svg>